<?xml version="1.0" standalone="no"?>
<!DOCTYPE svg PUBLIC "-//W3C//DTD SVG 20010904//EN"
 "http://www.w3.org/TR/2001/REC-SVG-20010904/DTD/svg10.dtd">
<svg version="1.0" xmlns="http://www.w3.org/2000/svg"
 width="250.000000pt" height="350.000000pt" viewBox="0 0 250.000000 350.000000"
 preserveAspectRatio="xMidYMid meet">
<metadata>
Created by potrace 1.16, written by Peter Selinger 2001-2019
</metadata>
<g transform="translate(0.000000,350.000000) scale(0.100000,-0.100000)"
fill="#000000" stroke="none">
<path d="M1090 2712 c-65 -8 -186 -45 -194 -59 -5 -9 -11 -11 -15 -5 -13 22
-195 -72 -308 -160 -70 -53 -171 -162 -223 -238 -57 -83 -124 -227 -157 -335
-26 -85 -27 -101 -27 -290 0 -189 1 -205 27 -290 110 -362 358 -625 705 -749
235 -84 643 -71 707 23 61 89 142 157 237 203 29 13 29 -8 0 -23 -15 -8 -29
-16 -32 -20 -3 -3 -23 -18 -45 -34 -22 -16 -66 -56 -99 -88 -67 -68 -58 -68
74 -2 107 54 168 99 166 121 0 9 5 19 13 22 10 3 12 0 7 -14 -4 -10 -3 -15 1
-10 4 4 8 18 8 29 0 15 6 22 18 21 9 -1 17 2 17 7 0 5 6 6 14 3 15 -6 96 79
161 170 58 81 128 229 162 341 25 84 27 102 27 285 1 172 -2 205 -22 277 -101
368 -371 657 -723 772 -34 12 -64 21 -65 21 -2 0 8 -16 21 -36 14 -20 25 -44
25 -53 -1 -9 -8 -3 -18 15 -34 62 -58 83 -101 90 -35 6 -44 3 -61 -16 -11 -13
-20 -29 -20 -35 0 -12 -42 -45 -57 -45 -3 0 5 12 19 28 24 25 48 64 48 76 0
15 -47 4 -58 -14 -14 -22 -3 -27 17 -7 11 10 12 8 3 -9 -6 -12 -9 -23 -7 -26
2 -2 -5 -9 -15 -16 -19 -11 -19 -10 -15 33 4 42 3 45 -20 45 -14 0 -25 -3 -25
-7 0 -5 -14 -23 -30 -40 -27 -30 -32 -32 -55 -21 -17 8 -24 17 -20 27 4 12 1
11 -9 -2 -9 -12 -16 -14 -21 -7 -3 5 -11 8 -16 5 -5 -4 -9 -1 -9 5 0 7 7 10
15 6 16 -6 19 3 7 19 -4 6 -18 9 -32 7z m170 -111 c53 -7 53 -14 0 -25 -14 -3
2 -3 35 0 32 3 69 7 82 10 13 4 23 2 23 -4 0 -11 -68 -38 -125 -49 -22 -4 -43
-8 -47 -9 -5 -1 -19 -2 -32 -3 -21 -1 -23 -4 -18 -49 10 -110 -19 -176 -154
-347 -82 -104 -144 -234 -144 -300 0 -38 6 -60 21 -79 25 -31 39 -21 39 26 0
21 8 31 35 44 35 16 60 39 31 28 -24 -9 -19 14 5 26 13 7 18 17 15 27 -5 12
-1 14 14 10 11 -3 35 0 54 5 l35 11 -22 18 c-28 22 -15 49 31 64 55 19 48 28
-16 21 -52 -6 -63 -4 -68 9 -19 48 46 94 133 96 61 1 107 17 51 18 -71 2 -84
22 -52 82 18 37 30 33 13 -4 -21 -45 -7 -57 65 -57 63 0 116 -14 116 -31 0 -9
-15 -13 -82 -24 -57 -9 -56 -31 3 -38 106 -13 113 -51 11 -62 -91 -10 -112
-16 -112 -31 0 -8 -7 -14 -16 -14 -8 0 -12 5 -9 10 8 12 -25 13 -44 1 -7 -5
-10 -14 -6 -20 8 -13 58 -9 200 14 109 18 189 3 200 -38 4 -12 13 -36 20 -52
10 -22 11 -42 5 -68 -9 -42 -54 -117 -70 -117 -6 0 -10 -5 -10 -11 0 -5 20 4
44 22 67 47 83 112 47 181 -11 19 -17 38 -14 42 7 7 -44 88 -118 186 -101 135
-135 208 -144 310 -4 47 -2 59 11 64 9 4 23 1 31 -5 11 -9 18 -8 36 8 25 23
42 20 57 -7 22 -41 -30 -71 -60 -35 -7 9 -15 13 -18 10 -3 -3 -11 0 -19 7 -23
19 -27 1 -14 -70 15 -83 46 -141 158 -292 86 -116 102 -134 100 -107 -1 6 4
32 11 57 7 25 18 64 25 88 6 23 14 42 18 42 14 0 17 -13 9 -40 -7 -23 -5 -28
6 -23 8 3 14 -1 14 -11 0 -9 -3 -15 -7 -15 -27 4 -43 -22 -48 -81 -1 -8 -5
-25 -9 -37 -10 -30 10 -67 32 -58 13 5 14 3 5 -6 -9 -8 -8 -21 3 -51 8 -22 14
-58 14 -80 0 -22 4 -37 9 -33 5 3 12 1 15 -4 4 -5 -4 -12 -16 -14 -13 -2 6 -5
42 -7 49 -1 59 -4 40 -10 -14 -4 -46 -8 -72 -9 -82 -2 -53 -21 35 -23 l82 -2
-75 -3 c-88 -4 -120 -10 -120 -23 0 -5 6 -7 13 -5 6 2 37 0 67 -4 55 -8 55 -9
-30 -10 -47 -1 -96 -4 -110 -8 l-25 -7 25 -6 c38 -9 38 -43 -2 -68 -41 -26
-54 -19 -22 13 34 34 31 48 -8 42 -18 -4 -127 -7 -243 -8 -115 -1 -213 -4
-218 -6 -4 -2 0 -12 9 -20 15 -15 15 -18 0 -28 -9 -7 -16 -20 -16 -30 0 -10
-7 -27 -17 -37 -15 -17 -15 -18 12 -18 40 0 75 -36 75 -77 0 -29 -3 -33 -25
-33 -21 0 -25 5 -25 29 0 31 -21 46 -39 28 -15 -15 -15 -199 0 -214 20 -20 39
-3 39 33 0 30 3 34 25 34 22 0 25 -4 25 -38 0 -55 -23 -82 -70 -82 -30 0 -43
6 -59 26 -18 23 -21 41 -21 138 0 89 3 117 17 136 16 24 16 24 -2 10 -17 -14
-18 -13 -11 15 4 17 8 37 9 45 6 30 27 70 37 70 26 0 5 19 -36 33 -37 12 -44
12 -40 1 6 -15 -34 -64 -52 -64 -21 0 -34 -44 -33 -109 1 -38 6 -68 13 -72 18
-11 23 -2 8 16 -10 12 -9 16 4 21 9 3 14 9 11 14 -2 4 7 18 20 30 14 13 25 20
25 15 0 -4 -7 -13 -15 -19 -8 -6 -16 -27 -17 -46 -2 -19 -8 -39 -15 -45 -6 -5
-14 -19 -17 -30 -3 -12 -4 -8 -2 8 2 15 -1 27 -5 27 -5 0 -9 -38 -9 -85 l0
-85 40 0 c36 0 40 -2 40 -25 0 -24 -2 -25 -65 -25 l-65 0 0 88 c0 99 -9 164
-21 156 -4 -2 -6 -11 -3 -18 3 -8 1 -17 -5 -21 -6 -3 -11 -12 -11 -18 0 -7 4
-6 10 3 8 13 10 13 10 -2 0 -9 -10 -20 -21 -23 -18 -6 -20 -12 -15 -44 21
-120 21 -121 -7 -121 -20 0 -26 6 -31 35 -6 29 -11 35 -31 35 -18 0 -25 -5
-25 -19 0 -35 -12 -51 -36 -51 -13 0 -24 2 -24 3 0 2 11 64 25 138 14 74 25
144 25 157 0 18 6 22 30 22 37 0 55 17 104 94 20 32 40 56 42 53 3 -3 -17 -39
-45 -81 -30 -45 -51 -86 -51 -102 l0 -28 31 30 c18 16 47 52 65 79 18 28 47
70 64 94 l31 44 -24 26 c-23 25 -37 57 -53 126 -7 27 -8 27 -11 8 -3 -13 -8
-23 -13 -23 -5 0 -7 -7 -4 -15 4 -8 2 -15 -4 -15 -5 0 -12 -8 -16 -17 -3 -10
-26 -49 -51 -88 -24 -38 -41 -72 -36 -75 11 -6 -24 -66 -63 -111 -35 -39 -58
-34 -74 16 -12 34 -12 50 3 111 21 91 68 208 103 254 40 54 114 119 128 113 8
-3 21 3 30 12 10 10 27 15 40 12 18 -3 29 5 53 42 16 25 57 80 91 121 34 41
75 93 91 114 36 49 70 155 63 199 -11 66 -15 77 -27 77 -6 0 -28 10 -47 21
l-34 21 23 19 c25 20 94 24 201 10z m564 -327 c9 -3 14 -10 11 -14 -3 -5 0
-12 7 -16 7 -4 10 -4 6 1 -4 4 -3 14 2 20 8 10 18 5 44 -19 18 -17 31 -37 28
-43 -2 -7 1 -13 7 -13 10 0 10 -19 -2 -102 -2 -16 0 -28 5 -28 5 0 6 -4 3 -10
-3 -5 -11 -10 -16 -10 -6 0 -7 5 -4 10 8 13 -1 13 -25 0 -13 -7 -21 -6 -30 5
-7 8 -9 15 -4 16 5 0 -9 9 -31 20 -22 10 -30 16 -17 13 25 -6 28 3 7 30 -22
29 -18 45 10 52 14 3 25 10 25 14 0 5 -9 6 -20 3 -27 -7 -57 16 -38 29 9 7 4
8 -14 5 -38 -6 -41 16 -4 29 17 7 32 12 33 13 1 0 8 -2 17 -5z m-247 -773 c-1
-16 -5 -27 -9 -24 -5 2 -8 0 -8 -5 0 -6 6 -12 14 -15 9 -4 18 -36 26 -91 7
-47 16 -86 20 -86 4 0 10 18 14 40 3 22 11 63 17 90 10 48 12 50 45 50 l34 0
0 -160 0 -160 -25 0 c-24 0 -24 2 -27 93 l-3 92 -19 -92 c-15 -75 -22 -93 -36
-93 -14 0 -21 19 -38 98 l-20 97 -1 -97 c-1 -97 -1 -98 -26 -98 l-25 0 -2 160
c-2 98 -7 160 -13 160 -5 0 -11 -11 -13 -25 -3 -22 -8 -25 -48 -25 l-44 0 0
-43 0 -43 35 4 c32 4 35 2 35 -22 0 -23 -4 -26 -35 -26 -35 0 -35 0 -35 -45
l0 -45 40 0 c36 0 40 -2 40 -25 0 -25 -1 -26 -67 -23 l-67 3 0 45 c-1 39 -4
45 -23 48 -21 3 -23 0 -23 -47 0 -50 0 -51 -31 -51 l-32 0 6 53 c6 48 5 53
-18 64 -14 6 -27 7 -30 3 -3 -4 -1 -37 4 -72 8 -52 7 -65 -6 -75 -12 -10 -5
-12 38 -15 46 -3 54 -6 54 -23 0 -15 -8 -21 -35 -25 -29 -4 -35 -9 -35 -30 0
-20 6 -26 28 -28 37 -4 39 -42 2 -42 -18 0 -26 -7 -31 -24 -8 -34 2 -46 37
-46 22 0 29 -5 29 -20 0 -12 -7 -20 -17 -20 -15 0 -13 -4 7 -20 14 -10 22 -22
18 -25 -4 -4 -17 5 -29 19 -24 28 -73 37 -63 12 3 -8 1 -23 -5 -33 -10 -17
-10 -16 -11 4 0 13 -10 27 -22 34 -24 13 -68 59 -68 72 0 4 11 7 25 7 18 0 28
-7 35 -25 5 -14 12 -25 15 -25 3 0 5 52 5 115 0 70 -4 115 -10 115 -5 0 -10
-9 -10 -20 0 -16 -7 -20 -34 -20 -19 0 -37 -4 -40 -8 -10 -16 7 -52 24 -52 10
0 25 -11 34 -25 19 -29 21 -41 3 -27 -7 6 -23 10 -35 9 -20 -1 -22 -7 -22 -56
0 -30 3 -51 7 -48 8 9 53 -40 53 -59 0 -7 5 -14 11 -14 5 0 7 -5 3 -12 -5 -8
-2 -9 9 -5 11 4 17 1 17 -8 0 -9 9 -23 20 -32 24 -21 25 -29 5 -37 -11 -4 -15
0 -13 12 2 13 -3 16 -24 14 -18 -2 -28 1 -28 10 0 7 -12 19 -28 25 -15 7 -60
42 -100 79 -67 61 -72 64 -72 40 0 -16 6 -26 15 -26 8 0 15 -4 15 -10 0 -13
-17 -13 -26 1 -4 7 -9 8 -17 0 -7 -7 -6 -15 3 -26 7 -8 9 -15 4 -15 -4 0 3
-12 17 -26 21 -23 22 -26 5 -23 -19 4 -28 16 -42 54 -12 34 -15 48 -19 104 -2
31 -10 60 -19 70 -15 14 -16 14 -16 -1 0 -9 4 -19 9 -22 11 -7 3 -43 -17 -73
-17 -28 -82 -32 -103 -7 -19 23 -13 203 8 226 17 19 68 24 78 8 3 -5 16 -10
28 -10 17 0 19 -2 7 -10 -18 -11 -7 -25 15 -17 8 4 15 16 15 27 0 20 5 21 52
18 41 -2 54 -7 56 -21 2 -11 -3 -17 -15 -17 -15 0 -14 -4 7 -21 l25 -20 -25 7
c-14 3 -33 13 -42 22 -10 8 -18 10 -18 4 0 -6 20 -24 44 -40 l44 -30 5 41 c2
24 -1 51 -8 62 -12 20 -11 21 51 17 35 -3 64 0 64 5 0 5 -17 8 -37 6 -21 -2
-32 0 -25 3 6 3 10 10 7 14 -3 5 21 8 52 6 32 -1 46 -1 30 1 l-28 4 3 157 c3
153 4 157 25 160 21 3 22 -1 25 -65 3 -65 4 -68 28 -67 26 0 26 -1 29 107 1
24 5 28 24 25 21 -3 22 -8 25 -100 3 -92 4 -98 24 -98 17 0 19 4 13 23 -3 12
-8 31 -10 42 -2 11 -4 22 -5 25 -6 13 3 45 16 57 8 8 14 23 14 34 0 16 8 19
48 20 26 1 57 0 70 -1 18 -1 22 3 20 17 -2 13 4 19 21 21 18 3 22 0 18 -11 -3
-9 1 -18 9 -21 10 -4 14 2 14 17 0 23 17 47 32 47 4 0 6 -13 5 -29z m252 -78
c6 -21 11 -44 11 -50 0 -31 17 -9 29 37 12 46 15 50 42 50 16 0 29 -2 29 -5 0
-2 -14 -42 -31 -87 -20 -56 -31 -106 -34 -153 -3 -62 -5 -70 -24 -73 -19 -3
-21 1 -21 56 0 43 -10 87 -35 156 -19 53 -35 99 -35 101 0 3 13 5 30 5 25 0
30 -5 39 -37z m-1157 -340 c10 -9 18 -29 18 -45 0 -22 -5 -28 -21 -28 -14 0
-19 5 -16 13 8 21 -9 41 -27 34 -25 -10 -19 -170 6 -175 12 -2 17 5 20 25 2
20 9 28 23 28 16 0 20 -6 19 -33 -2 -44 -20 -62 -60 -62 -51 0 -64 27 -64 132
0 75 3 91 20 108 24 24 57 26 82 3z m742 9 c9 -15 -9 -30 -39 -34 -26 -3 -30
-8 -33 -35 -3 -31 -1 -33 27 -33 24 0 31 -4 31 -20 0 -16 -7 -20 -30 -20 -28
0 -30 -3 -30 -35 0 -33 2 -35 35 -35 28 0 35 -4 35 -20 0 -18 -7 -20 -55 -20
l-55 0 0 130 0 130 54 0 c30 0 57 -4 60 -8z m326 4 c0 -3 9 -58 20 -123 24
-143 24 -133 1 -133 -13 0 -20 9 -24 30 -8 40 -47 43 -47 5 0 -24 -24 -44 -37
-31 -6 6 25 234 34 249 4 7 53 10 53 3z m177 -22 c15 -21 18 -80 4 -89 -6 -3
-4 -16 4 -31 7 -14 12 -33 10 -42 -2 -9 -4 -22 -4 -29 -2 -25 -33 -43 -77 -43
l-44 0 0 131 0 132 47 -6 c29 -3 52 -12 60 -23z"/>
<path d="M1333 1947 c-64 -10 -79 -21 -43 -32 24 -8 25 -14 1 -42 -22 -27 -31
-29 -31 -8 0 22 -12 19 -61 -19 -41 -31 -179 -96 -205 -96 -6 0 -17 -7 -25
-16 -19 -23 4 -34 66 -32 l50 1 -52 6 c-63 8 -81 21 -27 21 71 0 173 31 204
62 33 33 45 36 30 9 -30 -58 1 -119 66 -128 40 -5 113 21 129 47 4 6 -11 1
-32 -10 -49 -25 -103 -36 -103 -21 0 6 11 11 25 11 66 0 146 73 161 146 6 32
-17 94 -35 94 -5 0 -17 -21 -25 -47 -9 -27 -25 -59 -36 -73 l-20 -25 10 29 c6
16 9 31 6 33 -2 3 -7 -6 -11 -19 -9 -28 -113 -130 -120 -117 -9 13 11 44 40
63 14 9 38 43 55 75 16 33 39 66 50 74 29 20 8 25 -67 14z"/>
</g>
</svg>
